<mxfile host="Electron" modified="2024-01-11T10:00:26.012Z" agent="Mozilla/5.0 (Windows NT 10.0; Win64; x64) AppleWebKit/537.36 (KHTML, like Gecko) draw.io/22.1.18 Chrome/120.0.6099.199 Electron/28.1.2 Safari/537.36" etag="csM3x067WDOgzJjayUM0" version="22.1.18" type="device">
  <diagram id="GRX5f2IKe_jRjbAPhs5a" name="Page-1">
    <mxGraphModel dx="1009" dy="505" grid="1" gridSize="10" guides="1" tooltips="1" connect="1" arrows="1" fold="1" page="1" pageScale="1" pageWidth="1600" pageHeight="1200" math="0" shadow="0">
      <root>
        <mxCell id="0" />
        <mxCell id="1" parent="0" />
        <mxCell id="qBGki6Qu-t18BwJeB7Fz-50" value="" style="ellipse;html=1;shape=startState;fillColor=#000000;strokeColor=#ff0000;" parent="1" vertex="1">
          <mxGeometry x="740" y="70" width="30" height="30" as="geometry" />
        </mxCell>
        <mxCell id="qBGki6Qu-t18BwJeB7Fz-51" value="" style="edgeStyle=orthogonalEdgeStyle;html=1;verticalAlign=bottom;endArrow=open;endSize=8;strokeColor=#ff0000;" parent="1" source="qBGki6Qu-t18BwJeB7Fz-50" edge="1">
          <mxGeometry relative="1" as="geometry">
            <mxPoint x="755" y="160" as="targetPoint" />
          </mxGeometry>
        </mxCell>
        <mxCell id="qBGki6Qu-t18BwJeB7Fz-52" value="&lt;div&gt;Select media type&lt;/div&gt;" style="rounded=1;whiteSpace=wrap;html=1;" parent="1" vertex="1">
          <mxGeometry x="693.12" y="160" width="123.75" height="50" as="geometry" />
        </mxCell>
        <mxCell id="qBGki6Qu-t18BwJeB7Fz-54" value="" style="shape=line;html=1;strokeWidth=6;strokeColor=#ff0000;" parent="1" vertex="1">
          <mxGeometry x="545" y="250" width="420" height="10" as="geometry" />
        </mxCell>
        <mxCell id="qBGki6Qu-t18BwJeB7Fz-55" value="" style="edgeStyle=orthogonalEdgeStyle;html=1;verticalAlign=bottom;endArrow=open;endSize=8;strokeColor=#ff0000;exitX=0.25;exitY=0.5;exitDx=0;exitDy=0;exitPerimeter=0;" parent="1" source="qBGki6Qu-t18BwJeB7Fz-54" edge="1">
          <mxGeometry relative="1" as="geometry">
            <mxPoint x="650" y="320" as="targetPoint" />
          </mxGeometry>
        </mxCell>
        <mxCell id="qBGki6Qu-t18BwJeB7Fz-56" value="" style="edgeStyle=orthogonalEdgeStyle;html=1;verticalAlign=bottom;endArrow=open;endSize=8;strokeColor=#ff0000;exitX=0.75;exitY=0.5;exitDx=0;exitDy=0;exitPerimeter=0;" parent="1" source="qBGki6Qu-t18BwJeB7Fz-54" edge="1">
          <mxGeometry relative="1" as="geometry">
            <mxPoint x="860" y="320" as="targetPoint" />
            <mxPoint x="660" y="265" as="sourcePoint" />
          </mxGeometry>
        </mxCell>
        <mxCell id="qBGki6Qu-t18BwJeB7Fz-57" value="" style="endArrow=classic;html=1;rounded=0;fontSize=10;exitX=0.5;exitY=1;exitDx=0;exitDy=0;" parent="1" source="qBGki6Qu-t18BwJeB7Fz-52" target="qBGki6Qu-t18BwJeB7Fz-54" edge="1">
          <mxGeometry width="50" height="50" relative="1" as="geometry">
            <mxPoint x="385" y="240" as="sourcePoint" />
            <mxPoint x="770" y="240" as="targetPoint" />
          </mxGeometry>
        </mxCell>
        <mxCell id="qBGki6Qu-t18BwJeB7Fz-58" value="Select Image" style="rounded=1;whiteSpace=wrap;html=1;" parent="1" vertex="1">
          <mxGeometry x="590" y="320" width="117.5" height="30" as="geometry" />
        </mxCell>
        <mxCell id="qBGki6Qu-t18BwJeB7Fz-59" value="Select Text" style="rounded=1;whiteSpace=wrap;html=1;" parent="1" vertex="1">
          <mxGeometry x="800" y="320" width="117.5" height="30" as="geometry" />
        </mxCell>
        <mxCell id="qBGki6Qu-t18BwJeB7Fz-60" value="Enter Text&amp;nbsp;" style="rounded=1;whiteSpace=wrap;html=1;" parent="1" vertex="1">
          <mxGeometry x="800" y="390" width="117.5" height="30" as="geometry" />
        </mxCell>
        <mxCell id="qBGki6Qu-t18BwJeB7Fz-61" value="Browse File System&amp;nbsp;" style="rounded=1;whiteSpace=wrap;html=1;" parent="1" vertex="1">
          <mxGeometry x="590" y="390" width="117.5" height="30" as="geometry" />
        </mxCell>
        <mxCell id="qBGki6Qu-t18BwJeB7Fz-62" value="" style="endArrow=classic;html=1;rounded=0;fontSize=10;exitX=0.5;exitY=1;exitDx=0;exitDy=0;entryX=0.5;entryY=0;entryDx=0;entryDy=0;" parent="1" source="qBGki6Qu-t18BwJeB7Fz-59" target="qBGki6Qu-t18BwJeB7Fz-60" edge="1">
          <mxGeometry width="50" height="50" relative="1" as="geometry">
            <mxPoint x="385" y="240" as="sourcePoint" />
            <mxPoint x="385.01" y="290" as="targetPoint" />
          </mxGeometry>
        </mxCell>
        <mxCell id="qBGki6Qu-t18BwJeB7Fz-63" value="" style="endArrow=classic;html=1;rounded=0;fontSize=10;exitX=0.5;exitY=1;exitDx=0;exitDy=0;" parent="1" source="qBGki6Qu-t18BwJeB7Fz-58" target="qBGki6Qu-t18BwJeB7Fz-61" edge="1">
          <mxGeometry width="50" height="50" relative="1" as="geometry">
            <mxPoint x="395" y="250" as="sourcePoint" />
            <mxPoint x="395.01" y="300" as="targetPoint" />
          </mxGeometry>
        </mxCell>
        <mxCell id="qBGki6Qu-t18BwJeB7Fz-64" value="" style="endArrow=classic;html=1;rounded=0;fontSize=10;exitX=0.5;exitY=1;exitDx=0;exitDy=0;entryX=0.5;entryY=0;entryDx=0;entryDy=0;" parent="1" edge="1">
          <mxGeometry width="50" height="50" relative="1" as="geometry">
            <mxPoint x="648.25" y="420" as="sourcePoint" />
            <mxPoint x="648.26" y="470" as="targetPoint" />
          </mxGeometry>
        </mxCell>
        <mxCell id="qBGki6Qu-t18BwJeB7Fz-65" value="" style="endArrow=classic;html=1;rounded=0;fontSize=10;exitX=0.5;exitY=1;exitDx=0;exitDy=0;entryX=0.5;entryY=0;entryDx=0;entryDy=0;" parent="1" edge="1">
          <mxGeometry width="50" height="50" relative="1" as="geometry">
            <mxPoint x="858.25" y="420" as="sourcePoint" />
            <mxPoint x="858.26" y="470" as="targetPoint" />
          </mxGeometry>
        </mxCell>
        <mxCell id="qBGki6Qu-t18BwJeB7Fz-66" value="" style="endArrow=classic;html=1;rounded=0;fontSize=10;exitX=0.5;exitY=1;exitDx=0;exitDy=0;entryX=0.5;entryY=0;entryDx=0;entryDy=0;" parent="1" edge="1">
          <mxGeometry width="50" height="50" relative="1" as="geometry">
            <mxPoint x="754.4100000000001" y="480" as="sourcePoint" />
            <mxPoint x="754.4200000000001" y="530" as="targetPoint" />
          </mxGeometry>
        </mxCell>
        <mxCell id="qBGki6Qu-t18BwJeB7Fz-67" value="" style="shape=line;html=1;strokeWidth=6;strokeColor=#ff0000;" parent="1" vertex="1">
          <mxGeometry x="545" y="470" width="420" height="10" as="geometry" />
        </mxCell>
        <mxCell id="qBGki6Qu-t18BwJeB7Fz-74" value="&lt;div&gt;Upload Media&lt;/div&gt;" style="rounded=1;whiteSpace=wrap;html=1;" parent="1" vertex="1">
          <mxGeometry x="693.13" y="530" width="123.75" height="50" as="geometry" />
        </mxCell>
        <mxCell id="qBGki6Qu-t18BwJeB7Fz-76" value="" style="ellipse;html=1;shape=endState;fillColor=#000000;strokeColor=#ff0000;" parent="1" vertex="1">
          <mxGeometry x="739.99" y="630" width="30" height="30" as="geometry" />
        </mxCell>
        <mxCell id="qBGki6Qu-t18BwJeB7Fz-79" value="" style="endArrow=classic;html=1;rounded=0;fontSize=10;exitX=0.5;exitY=1;exitDx=0;exitDy=0;entryX=0.5;entryY=0;entryDx=0;entryDy=0;" parent="1" source="qBGki6Qu-t18BwJeB7Fz-74" target="qBGki6Qu-t18BwJeB7Fz-76" edge="1">
          <mxGeometry width="50" height="50" relative="1" as="geometry">
            <mxPoint x="764.4099999999999" y="490" as="sourcePoint" />
            <mxPoint x="764.4200000000001" y="540" as="targetPoint" />
          </mxGeometry>
        </mxCell>
      </root>
    </mxGraphModel>
  </diagram>
</mxfile>
